<?xml version="1.0" encoding="utf-8"?>
<!-- Generator: Adobe Illustrator 19.0.0, SVG Export Plug-In . SVG Version: 6.00 Build 0)  -->
<svg version="1.1" id="Layer_1" xmlns="http://www.w3.org/2000/svg" xmlns:xlink="http://www.w3.org/1999/xlink" x="0px" y="0px"
	 viewBox="0 0 82.4 76.2" style="enable-background:new 0 0 82.4 76.2;" xml:space="preserve">
<style type="text/css">
	.st0{fill:#137D8E;}
	.st1{fill:#C6E8F2;}
	.st2{fill:#4FC6E0;}
</style>
<g id="XMLID_3_">
	<rect id="XMLID_163_" x="17.3" y="36.7" class="st0" width="11.2" height="11.3"/>
	<polygon id="XMLID_54_" class="st1" points="17.3,48 28.5,36.7 28.5,48 	"/>
	<path id="XMLID_106_" class="st2" d="M41.2,0L0,40h11.7v36.2h23.8V56.4h11.2v19.7h23.8V40h11.7L41.2,0z M28.5,48H17.3V36.7h11.2V48
		z M46.8,48H35.6V36.7h11.2V48z M65.1,48H53.9V36.7h11.2V48z"/>
	<rect id="XMLID_162_" x="35.6" y="36.7" class="st0" width="11.2" height="11.3"/>
	<rect id="XMLID_161_" x="53.9" y="36.7" class="st0" width="11.2" height="11.3"/>
	<rect id="XMLID_160_" x="35.6" y="56.4" class="st1" width="11.2" height="19.7"/>
	<polygon id="XMLID_111_" class="st2" points="0,40 41.2,0 82.4,40 70.6,40 41.2,10.3 11.7,40 	"/>
	<polygon id="XMLID_112_" class="st1" points="35.6,48 46.8,36.7 46.8,48 	"/>
	<polygon id="XMLID_113_" class="st1" points="53.9,48 65.1,36.7 65.1,48 	"/>
	<rect id="XMLID_159_" x="11.7" y="56.4" class="st0" width="23.8" height="19.7"/>
	<rect id="XMLID_158_" x="46.8" y="56.4" class="st0" width="23.8" height="19.7"/>
</g>
</svg>
