<svg height="464pt" viewBox="0 -8 464 464" width="464pt" xmlns="http://www.w3.org/2000/svg"><path d="m448 169.472656v-81.472656c-.058594-48.578125-39.421875-87.9414062-88-88h-56c-13.253906 0-24 10.746094-24 24v8c0 13.253906 10.746094 24 24 24h56c17.671875 0 32 14.328125 32 32v16h-12v-8c0-13.253906-10.746094-24-24-24h-16c-13.253906 0-24 10.746094-24 24v8h-20c-36.644531.054688-67.417969 27.585938-71.527344 64h-8.472656c-13.253906 0-24 10.746094-24 24v8h-160c-17.671875 0-32 14.328125-32 32s14.328125 32 32 32h48v104c0 13.253906 10.746094 24 24 24h.71875l-19.414062 11.199219c-11.488282 6.628906-15.429688 21.3125-8.800782 32.800781s21.3125 15.425781 32.800782 8.800781l91.421874-52.800781h47.273438c6.730469-.015625 13.140625-2.875 17.648438-7.871094l105.046874 60.671875c11.488282 6.625 26.171876 2.6875 32.800782-8.800781s2.6875-26.171875-8.800782-32.800781l-106.695312-61.597657 134.398438-77.601562h25.601562c4.417969 0 8-3.582031 8-8s-3.582031-8-8-8h-176v-32h184c4.417969 0 8-3.582031 8-8v-16c-.042969-10.132812-6.445312-19.148438-16-22.527344zm-116-73.472656c0-4.417969 3.582031-8 8-8h16c4.417969 0 8 3.582031 8 8v8h-32zm-300 152c-8.835938 0-16-7.164062-16-16s7.164062-16 16-16h48v32zm69.296875 182.929688c-1.832031 1.074218-4.019531 1.363281-6.066406.796874-3.121094-.839843-5.429688-3.476562-5.847657-6.679687-.421874-3.203125 1.125-6.347656 3.921876-7.96875l43.421874-25.078125h32zm146.703125-54.929688h-110.609375l36.679687-42.792969c1.988282-2.152343 2.644532-5.21875 1.703126-7.992187-.941407-2.777344-3.320313-4.816406-6.207032-5.316406-2.886718-.503907-5.816406.613281-7.636718 2.910156l-45.609376 53.191406h-12.320312c-4.417969 0-8-3.582031-8-8v-29.144531l70.191406-85.792969c1.863282-2.207031 2.390625-5.246094 1.382813-7.949219-1.007813-2.707031-3.394531-4.660156-6.246094-5.109375-2.851563-.453125-5.726563.667969-7.519531 2.933594l-57.808594 70.664062v-97.601562h160v152c0 4.417969-3.582031 8-8 8zm142.398438 45.929688c.835937 3.121093-.292969 6.441406-2.859376 8.410156-2.566406 1.96875-6.066406 2.195312-8.867187.582031l-106.734375-61.601563c0-.433593.039062-.863281.039062-1.296874v-17.175782l114.695313 66.222656c1.84375 1.054688 3.1875 2.804688 3.726563 4.859376zm-118.398438-89.5625v-18.472657l86.398438-49.894531h32zm54.398438-68.367188-54.398438 31.414062v-31.414062zm-62.398438-64h-56v-8c0-4.417969 3.582031-8 8-8h160c4.417969 0 8-3.582031 8-8s-3.582031-8-8-8h-135.359375c3.972656-27.527344 27.546875-47.96875 55.359375-48h104c4.417969 0 8-3.582031 8-8v-24c-.027344-26.5-21.5-47.972656-48-48h-56c-4.417969 0-8-3.582031-8-8v-8c0-4.417969 3.582031-8 8-8h56c39.746094.046875 71.953125 32.253906 72 72v88c0 4.417969 3.582031 8 8 8s8 3.582031 8 8v8zm0 0"/></svg>