<svg height="512" viewBox="0 0 60 60" width="512" xmlns="http://www.w3.org/2000/svg"><g id="Page-1" fill="none" fill-rule="evenodd"><g id="003---Ironing" fill="rgb(0,0,0)" fill-rule="nonzero"><path id="Shape" d="m45 0c-2.294 0-4.725 1.794-7.072 5.164l-7.367-4.992c-.1655935-.11214124-.3610078-.17205437-.561-.172h-16c-.1999922-.00005437-.3954065.05985876-.561.172l-12.573 8.512c-.82303713.56515294-1.10123901 1.6518924-.651 2.543l4.164 8.337c.23886197.4716096.65547692.8288623 1.158.993.48954083.166037 1.0250777.1300467 1.488-.1l1.975-.9v18.443c0 1.6568542 1.3431458 3 3 3h18c.0015909 1.5003851.3435028 2.9808635 1 4.33v7.67h-5c-1.6568542 0-3-1.3431458-3-3-.0033061-2.7600532-2.2399468-4.9966939-5-5h-5c-2.7600532.0033061-4.99669388 2.2399468-5 5 0 1.6568542-1.34314575 3-3 3h-4c-.55228475 0-1 .4477153-1 1s.44771525 1 1 1h4c2.76005315-.0033061 4.99669388-2.2399468 5-5 0-1.6568542 1.3431458-3 3-3h5c1.6568542 0 3 1.3431458 3 3 .0033061 2.7600532 2.2399468 4.9966939 5 5h5c.0033061 2.7600532 2.2399468 4.9966939 5 5h18c2.7600532-.0033061 4.9966939-2.2399468 5-5v-9.67c.6564972-1.3491365.9984091-2.8296149 1-4.33v-7c0-16.523-7.71-34-15-34zm-23 12.985-6.277-10.985h12.554zm-8-9.969 5.28 9.24-7.92-4.62zm18.64 4.62-7.92 4.62 5.28-9.24zm-21.64 30.364v-20c.0002164-.34054-.172881-.6577824-.4593623-.8418912-.2864813-.1841087-.64696263-.2097735-.9566377-.0681088l-3.419 1.573-4.174-8.325 9.009-6.097-1.372 2.4c-.54412609.95260383-.21931869 2.16572379.728 2.719l10.644 6.214v23.426h-9c-.5522847 0-1-.4477153-1-1zm12 1v-23.426l10.648-6.211c.9473187-.55327621 1.2721261-1.76639617.728-2.719l-1.37-2.4 3.835 2.6c-1.9349577 3.3612772-3.4407083 6.951965-4.482 10.688-1.545567 5.353515-2.339497 10.8958801-2.359 16.468v5zm31 19h-18c-1.6568542 0-3-1.3431458-3-3v-6.871c1.8650548 1.8402015 4.3799293 2.8716593 7 2.871h10c2.6200707.0006593 5.1349452-1.0307985 7-2.871v6.871c0 1.6568542-1.3431458 3-3 3zm4-24v7c-.0049599 4.4162219-3.5837781 7.9950401-8 8h-10c-4.4162219-.0049599-7.9950401-3.5837781-8-8v-7c.0193537-5.3839998.7866901-10.7392005 2.28-15.912 1.0618908-3.8708163 2.6614736-7.5735543 4.752-11 2.075-3.233 4.251-5.088 5.968-5.088 2.464 0 5.737 3.743 8.338 9.535 3.0658141 7.0932943 4.6521654 14.7375203 4.662 22.465z"/><path id="Shape" d="m45 10c.5522847 0 1-.44771525 1-1v-3c0-.55228475-.4477153-1-1-1s-1 .44771525-1 1v3c0 .55228475.4477153 1 1 1z"/><path id="Shape" d="m43.707 13.293-3-3c-.3923789-.37897221-1.0160848-.37355237-1.4018186.0121814-.3857338.3857338-.3911536 1.0094397-.0121814 1.4018186l3 3c.3923789.3789722 1.0160848.3735524 1.4018186-.0121814s.3911536-1.0094397.0121814-1.4018186z"/><path id="Shape" d="m46.293 14.707c.3904999.3903819 1.0235001.3903819 1.414 0l3-3c.3789722-.3923789.3735524-1.0160848-.0121814-1.4018186-.3857338-.38573377-1.0094397-.39115361-1.4018186-.0121814l-3 3c-.3903819.3904999-.3903819 1.0235001 0 1.414z"/><path id="Shape" d="m37.553 18.9 4 2c.4942949.2468713 1.0951287.0462949 1.342-.448s.0462949-1.0951287-.448-1.342l-4-2c-.4942948-.2468713-1.0951287-.0462948-1.342.448-.2468712.4942949-.0462948 1.0951287.448 1.342z"/><path id="Shape" d="m47.105 20.447c.1184679.2374485.3264554.4180742.5781614.5021012.251706.0840271.5264889.0645647.7638386-.0541012l4-2c.3197527-.1596977.5300187-.4778505.5515928-.8346134.0215741-.3567628-.1488214-.6979349-.447-.895-.2981787-.1970651-.6788401-.2200843-.9985928-.0603866l-4 2c-.2374485.1184679-.4180742.3264554-.5021012.5781614-.0840271.251706-.0645647.5264889.0541012.7638386z"/><path id="Shape" d="m35.628 24.929 5 2c.1184475.0467953.2446438.0708811.372.071.4799959.000924.8929424-.3393282.9838332-.810641.0908908-.4713129-.1659153-.9407241-.6118332-1.118359l-5-2c-.5130725-.2054499-1.09555.0439275-1.301.557-.2054499.5130725.0439275 1.0955501.557 1.301z"/><path id="Shape" d="m48.071 26.372c.1521275.3795963.520055.6283137.929.628.1273562-.0001189.2535525-.0242047.372-.071l5-2c.3318997-.1329028.567685-.4327764.6185376-.7866615.0508527-.353885-.0909529-.7080178-.372-.929s-.6586379-.2752413-.9905376-.1423385l-5 2c-.2465102.0985065-.4437369.2909871-.5482175.5350253-.1044806.2440381-.1076402.5196051-.0087825.7659747z"/><path id="Shape" d="m42 31c0-.5522847-.4477153-1-1-1h-6c-.5522847 0-1 .4477153-1 1s.4477153 1 1 1h6c.5522847 0 1-.4477153 1-1z"/><path id="Shape" d="m49 30c-.5522847 0-1 .4477153-1 1s.4477153 1 1 1h6c.5522847 0 1-.4477153 1-1s-.4477153-1-1-1z"/><circle id="Oval" cx="45" cy="35" r="1"/><circle id="Oval" cx="42" cy="39" r="1"/><circle id="Oval" cx="39" cy="43" r="1"/><circle id="Oval" cx="45" cy="43" r="1"/><circle id="Oval" cx="51" cy="43" r="1"/><circle id="Oval" cx="48" cy="39" r="1"/></g></g></svg>