<?xml version="1.0" encoding="utf-8"?>
<!-- Generator: Adobe Illustrator 19.0.0, SVG Export Plug-In . SVG Version: 6.00 Build 0)  -->
<svg version="1.1" id="Layer_1" xmlns="http://www.w3.org/2000/svg" xmlns:xlink="http://www.w3.org/1999/xlink" x="0px" y="0px"
	 viewBox="0 0 103.9 67.9" style="enable-background:new 0 0 103.9 67.9;" xml:space="preserve">
<style type="text/css">
	.st0{fill:#4FC6E0;}
	.st1{fill:#137D8E;}
	.st2{fill:#C6E8F2;}
</style>
<g id="XMLID_4_">
	<path id="XMLID_33_" class="st0" d="M100.6,28.1h-2.5l-7.6-14c-0.6-1.1-1.7-1.8-2.9-1.8H70.2V3.4V0h-3.4H3.4H0v3.4v20.2v26.9v5.1
		v3.4h3.4h5h2.1c1.3,5.1,6,8.9,11.5,8.9s10.2-3.8,11.5-8.9h39c1.3,5.1,6,8.9,11.5,8.9c5.5,0,10.2-3.8,11.5-8.9h5h3.4v-3.4v-24v-3.4
		H100.6z M22,61.1c-2.9,0-5.3-2.4-5.3-5.3c0-2.9,2.3-5.3,5.3-5.3s5.3,2.4,5.3,5.3C27.3,58.7,24.9,61.1,22,61.1z M62.6,28.1H7.7V7.2
		h54.9V28.1z M84,61.1c-2.9,0-5.3-2.4-5.3-5.3c0-2.9,2.3-5.3,5.3-5.3c2.9,0,5.3,2.4,5.3,5.3C89.3,58.7,86.9,61.1,84,61.1z
		 M70.2,28.1v-4.5v-4.5h15.3l4.9,9H70.2z"/>
	<rect id="XMLID_101_" x="7.7" y="7.2" class="st1" width="54.9" height="31.4"/>
	<rect id="XMLID_100_" x="7.7" y="7.2" class="st2" width="54.9" height="21.5"/>
	<polygon id="XMLID_60_" class="st2" points="90.4,28.1 70.2,28.1 70.2,19.1 85.5,19.1 	"/>
	<rect id="XMLID_98_" x="101.2" y="31.4" class="st2" width="2.8" height="10.3"/>
	<rect id="XMLID_97_" x="0" y="49.3" class="st1" width="103.9" height="9.7"/>
	<ellipse id="XMLID_96_" class="st1" cx="21.9" cy="55.7" rx="12" ry="12.1"/>
	<ellipse id="XMLID_95_" class="st2" cx="21.9" cy="55.7" rx="6.4" ry="6.4"/>
	<ellipse id="XMLID_94_" class="st1" cx="84" cy="55.7" rx="12" ry="12.1"/>
	<ellipse id="XMLID_93_" class="st2" cx="84" cy="55.7" rx="6.4" ry="6.4"/>
</g>
</svg>
