<?xml version="1.0" encoding="utf-8"?>
<!-- Generator: Adobe Illustrator 22.1.0, SVG Export Plug-In . SVG Version: 6.00 Build 0)  -->
<svg version="1.1" id="Layer_1" xmlns="http://www.w3.org/2000/svg" xmlns:xlink="http://www.w3.org/1999/xlink" x="0px" y="0px"
	 viewBox="0 0 225 213.3" style="enable-background:new 0 0 225 213.3;" xml:space="preserve">
<style type="text/css">
	.st0{fill:#4FC6E0;}
	.st1{fill:#137D8E;}
	.st2{fill:#C6E8F2;}
	.st3{fill:#47B2CA;}
</style>
<title>Menu</title>
<path class="st0" d="M-354,3016v-56.7h-80.5v56.7h-7.9l-6.2,8.9h4.4h100h4.4l-6.2-8.9H-354z M-379.1,2971.1h13.3v13.4h-13.3V2971.1z
	 M-379.1,2992.9h13.3v13.4h-13.3V2992.9z M-400.9,2971.1h13.3v13.4h-13.3V2971.1z M-422.6,2971.1h13.3v13.4h-13.3V2971.1z
	 M-422.6,2992.9h13.3v13.4h-13.3V2992.9z M-400.9,3024.9v-32h13.3v32H-400.9z"/>
<rect x="-379.1" y="2993" class="st1" width="13.3" height="13.4"/>
<polygon class="st2" points="-379.1,3006.4 -365.9,2993 -365.9,3006.4 "/>
<rect x="-422.7" y="2993" class="st1" width="13.3" height="13.4"/>
<polygon class="st2" points="-422.7,3006.4 -409.4,2993 -409.4,3006.4 "/>
<rect x="-379.1" y="2971.1" class="st1" width="13.3" height="13.4"/>
<polygon class="st2" points="-379.1,2984.6 -365.9,2971.1 -365.9,2984.6 "/>
<rect x="-400.9" y="2971.1" class="st1" width="13.3" height="13.4"/>
<polygon class="st2" points="-400.9,2984.6 -387.6,2971.1 -387.6,2984.6 "/>
<rect x="-422.7" y="2971.1" class="st1" width="13.3" height="13.4"/>
<polygon class="st2" points="-422.7,2984.6 -409.4,2971.1 -409.4,2984.6 "/>
<polygon class="st1" points="-354,3016 -354,3006.3 -434.5,3006.3 -434.5,3016 -442.5,3016 -448.7,3024.9 -339.8,3024.9 -346,3016 
	"/>
<rect x="-400.9" y="2992.9" class="st2" width="13.3" height="32"/>
<rect class="st0" width="225" height="213.3"/>
<path class="st3" d="M141,213c12.1-34.1,45.7-60.5,84-60.5V213H141z"/>
</svg>
