<?xml version="1.0" encoding="utf-8"?>
<!-- Generator: Adobe Illustrator 22.1.0, SVG Export Plug-In . SVG Version: 6.00 Build 0)  -->
<svg version="1.1" id="Layer_1" xmlns="http://www.w3.org/2000/svg" xmlns:xlink="http://www.w3.org/1999/xlink" x="0px" y="0px"
	 viewBox="0 0 324.6 48.7" style="enable-background:new 0 0 324.6 48.7;" xml:space="preserve">
<style type="text/css">
	.st0{fill:#4FC6E0;}
	.st1{fill:#137D8E;}
	.st2{fill:#C6E8F2;}
	.st3{fill:#FFFFFF;}
</style>
<title>Menu</title>
<path class="st0" d="M-303.9,2934.2v-56.7h-80.5v56.7h-7.9l-6.2,8.9h4.4h100h4.4l-6.2-8.9H-303.9z M-329,2889.3h13.3v13.4H-329
	V2889.3z M-329,2911.1h13.3v13.4H-329V2911.1z M-350.8,2889.3h13.3v13.4h-13.3V2889.3z M-372.5,2889.3h13.3v13.4h-13.3V2889.3z
	 M-372.5,2911.1h13.3v13.4h-13.3V2911.1z M-350.8,2943.1v-32h13.3v32H-350.8z"/>
<rect x="-329" y="2911.2" class="st1" width="13.3" height="13.4"/>
<polygon class="st2" points="-329,2924.6 -315.8,2911.2 -315.8,2924.6 "/>
<rect x="-372.6" y="2911.2" class="st1" width="13.3" height="13.4"/>
<polygon class="st2" points="-372.6,2924.6 -359.3,2911.2 -359.3,2924.6 "/>
<rect x="-329" y="2889.3" class="st1" width="13.3" height="13.4"/>
<polygon class="st2" points="-329,2902.8 -315.8,2889.3 -315.8,2902.8 "/>
<rect x="-350.8" y="2889.3" class="st1" width="13.3" height="13.4"/>
<polygon class="st2" points="-350.8,2902.8 -337.5,2889.3 -337.5,2902.8 "/>
<rect x="-372.6" y="2889.3" class="st1" width="13.3" height="13.4"/>
<polygon class="st2" points="-372.6,2902.8 -359.3,2889.3 -359.3,2902.8 "/>
<polygon class="st1" points="-303.9,2934.2 -303.9,2924.5 -384.4,2924.5 -384.4,2934.2 -392.4,2934.2 -398.6,2943.1 -289.7,2943.1 
	-295.9,2934.2 "/>
<rect x="-350.8" y="2911.1" class="st2" width="13.3" height="32"/>
<polygon class="st3" points="314.2,33.5 314.2,45.7 3,45.7 3,3 314.2,3 314.2,15.6 317.2,17.1 317.2,0 0,0 0,48.7 317.2,48.7 
	317.2,32 "/>
<polygon class="st3" points="309.5,17.1 311.8,24.6 309.6,32.1 324.2,24.5 "/>
</svg>
