<?xml version="1.0" encoding="utf-8"?>
<svg xmlns="http://www.w3.org/2000/svg" xmlns:xlink="http://www.w3.org/1999/xlink" id="e59edb86-a3bc-4694-8aac-31e565ca5cfc"  data-name="Layer 1"  viewBox="0 0 676 676">
<path d="M938,450c0,120.33-62.88,225.98-157.58008,285.87q-13.25976,8.4-27.33984,15.55c-2.12012,1.09-4.25,2.14-6.40015,3.17-1.77.86-3.55993,1.7-5.34985,2.53a334.82825,334.82825,0,0,1-57.78,20.47c-1.29.33-2.59009.65-3.89014.96-.97.24-1.94995.47-2.92993.69a2.48782,2.48782,0,0,1-.37.09c-2.01.47-4.0199.92-6.04993,1.33-1.14014.24-2.28.48-3.42005.71-.69006.15-1.39.28-2.07995.41-.87012.17-1.73.33-2.6001.5-.48.1-.96.18-1.45.26-1.1001.2-2.19995.4-3.29.59-1.86.32-3.74.63-5.61.91-1.36.21-2.71.41-4.07.6-1.6001.23-3.19995.44-4.81006.64-.43994.07-.88.12-1.32007.17q-.85473.10492-1.71.21c-1.74.21-3.5.4-5.25.58q-1.70983.18-3.41992.33c-1.47.13995-2.93994.26-4.42.38-1.79993.14-3.59.27-5.4.38-1.15991.07-2.32.14-3.49.2-2.98.16-5.96.27-8.96.35-1.49.04-2.99.07-4.49.09h-.03c-1.49.02-2.99.03-4.49.03A337.82747,337.82747,0,0,1,262,450c0-186.67,151.33008-338,338-338S938,263.33,938,450Z" transform="translate(-262 -112)" fill="#6c63ff" id="background-circle"/>
<path d="M728.28551,338.52139c6.38046,35.99732-7.70456,68.59225-7.70456,68.59225s-24.42979-25.76825-30.81025-61.76557,7.70457-68.59225,7.70457-68.59225S721.90506,302.52407,728.28551,338.52139Z" transform="translate(-262 -112)" opacity="0.2"/>
<path d="M443.85344,292.17875c48.87523-82.584,145.571-86.43279,145.571-86.43279s94.22448-12.04934,154.6689,113.72713c56.339,117.234,134.09405,230.42583,12.51793,257.86946l-21.96018-68.3499-13.59982,73.43847a475.69666,475.69666,0,0,1-52.0179.889C538.83514,579.11657,414.841,584.55,418.83345,537.8294,424.14071,475.721,396.82566,371.64108,443.85344,292.17875Z" transform="translate(-262 -112)" fill="#2f2e41"/>
<circle cx="336.94555" cy="282.15949" r="123.62315" fill="#d0cde1"/>
<path d="M658.46781,462.839s-50.365,146.51633,9.15727,187.724S571.47374,719.24259,530.266,691.77078s-73.25816-73.25816-73.25816-73.25816S562.31647,513.204,539.42329,453.68175Z" transform="translate(-262 -112)" fill="#d0cde1"/>
<path d="M750.04,682.61l-8.71,74.51a334.82825,334.82825,0,0,1-57.78,20.47c-1.29.33-2.59009.65-3.89014.96-.97.24-1.94995.47-2.92993.69a2.48782,2.48782,0,0,1-.37.09c-2.01.47-4.0199.92-6.04993,1.33-1.14014.24-2.28.48-3.42005.71-.69006.15-1.39.28-2.07995.41-.87012.17-1.73.33-2.6001.5-.48.1-.96.18-1.45.26-1.1001.2-2.19995.4-3.29.59-1.86.32-3.74.63-5.61.91-1.36.21-2.71.41-4.07.6-1.6001.23-3.19995.44-4.81006.64-.43994.07-.88.12-1.32007.17q-.85473.10492-1.71.21c-1.74.21-3.5.4-5.25.58q-1.70983.18-3.41992.33c-1.47.13995-2.93994.26-4.42.38-1.79993.14-3.59.27-5.4.38-1.15991.07-2.32.14-3.49.2-2.98.16-5.96.27-8.96.35-1.49.04-2.99.07-4.49.09h-.03c-1.49.02-2.99.03-4.49.03A338.30005,338.30005,0,0,1,304.71,614.59a446.37681,446.37681,0,0,1,46.99-28.13c5.17005-2.61,12.18-4.21,20.19006-5.03,18.09-1.88,41.52991.22,61.86,4.07,18.54,3.48,34.52,8.43,41.57007,13.1,18.31994,12.13,91.58,51.96,91.58,51.96s64.06995,9.16,89.95-9.92c.01,0,.01-.01.02-.01,6.1-4.52,14.53991-4.55,23.85-1.96q2.955.825,6.02,1.97a121.62687,121.62687,0,0,1,16.48,7.85c.12012.07.23.13.3501.2,1.86987,1.05,3.73,2.15,5.56994,3.28C730.92993,665.25,750.04,682.61,750.04,682.61Z" transform="translate(-262 -112)" fill="#2f2e41"/>
<path d="M380.25,706.82c-2.96-54.98-6.32007-100.02-8.36-125.39,18.09-1.88,41.52991.22,61.86,4.07,16.55005,33.16,53.85,109.7,88.17993,193.44A336.98776,336.98776,0,0,1,380.25,706.82Z" transform="translate(-262 -112)" fill="#2f2e41"/>
<path d="M780.41992,735.87q-13.25976,8.4-27.33984,15.55c-2.12012,1.09-4.25,2.14-6.40015,3.17-1.77.86-3.55993,1.7-5.34985,2.53a334.82825,334.82825,0,0,1-57.78,20.47c14.40991-46.53,23.54-92.47,20.05994-128.47l5.53,2.85,26.65,13.73A81.90939,81.90939,0,0,1,756.53,680.9a75.92584,75.92584,0,0,1,5.18994,5.74A82.26163,82.26163,0,0,1,780.38,735C780.39,735.29,780.40991,735.58,780.41992,735.87Z" transform="translate(-262 -112)" fill="#2f2e41"/>
<path d="M479.19768,284.21786l95.53072-50.04,59.93613,9.30037a107.1494,107.1494,0,0,1,88.07433,82.22088l11.20767,49.50048-67.94425-2.61328-18.98106-44.28915v43.5591l-31.351-1.20591-18.1964-70.51073-11.37255,75.06L474.64844,372.925Z" transform="translate(-262 -112)" fill="#2f2e41"/>
</svg>
