<?xml version="1.0" standalone="no"?>
<!DOCTYPE svg PUBLIC "-//W3C//DTD SVG 20010904//EN"
 "http://www.w3.org/TR/2001/REC-SVG-20010904/DTD/svg10.dtd">
<svg version="1.0" xmlns="http://www.w3.org/2000/svg"
 width="225.000000pt" height="225.000000pt" viewBox="0 0 225.000000 225.000000"
 preserveAspectRatio="xMidYMid meet">
<metadata>
Created by potrace 1.15, written by Peter Selinger 2001-2017
</metadata>
<g transform="translate(0.000000,225.000000) scale(0.100000,-0.100000)"
fill="#000000" stroke="none">
<path d="M948 2234 c-96 -15 -239 -59 -320 -100 -231 -115 -442 -340 -539
-573 -175 -420 -80 -910 238 -1223 106 -105 180 -159 298 -218 446 -221 970
-127 1315 236 375 394 412 998 89 1435 -64 86 -197 213 -284 270 -237 156
-517 217 -797 173z m292 -64 c104 -13 210 -41 302 -80 72 -31 208 -116 266
-166 l33 -29 -744 -743 -744 -744 -50 64 c-132 168 -201 338 -225 560 -52 488
273 964 757 1103 147 42 262 52 405 35z m751 -452 c140 -203 207 -465 179
-700 -29 -250 -130 -461 -304 -634 -384 -382 -972 -415 -1400 -78 l-59 46 744
745 744 744 28 -33 c16 -18 46 -59 68 -90z"/>
<path d="M568 1749 c-21 -12 -23 -40 -6 -57 18 -18 173 -16 191 3 20 19 11 52
-16 59 -36 9 -151 6 -169 -5z"/>
<path d="M422 1577 c-22 -23 -22 -25 -22 -455 0 -419 1 -433 20 -452 27 -27
67 -30 82 -7 12 18 10 26 -12 44 -19 17 -20 30 -20 420 l0 403 448 0 c246 0
453 4 460 9 8 4 12 19 10 32 l-3 24 -471 3 -470 2 -22 -23z"/>
<path d="M1049 1396 c-117 -31 -209 -153 -209 -277 0 -35 20 -69 40 -69 19 0
40 33 34 52 -10 32 15 113 48 152 39 47 96 76 152 76 60 0 76 8 76 36 0 43
-52 54 -141 30z"/>
<path d="M1744 1578 c-5 -16 -1 -27 15 -39 21 -17 21 -19 19 -421 l-3 -403
-456 -3 c-404 -2 -458 -4 -463 -18 -3 -8 -1 -24 4 -35 10 -18 27 -19 466 -19
466 0 482 1 511 39 9 12 12 124 13 447 l0 431 -23 21 c-31 29 -73 29 -83 0z"/>
<path d="M1536 1379 c-61 -53 -39 -129 39 -129 92 0 108 128 18 154 -16 5 -31
-2 -57 -25z"/>
<path d="M1345 1184 c-11 -11 -14 -25 -10 -41 3 -14 -1 -48 -9 -77 -27 -91
-121 -158 -218 -154 -53 2 -73 -25 -42 -56 22 -22 92 -20 160 5 102 39 171
132 181 248 4 45 2 61 -12 74 -21 21 -29 21 -50 1z"/>
</g>
</svg>
